HIERARCHY
ROOT Hips
{
	OFFSET 0.000000 0.000000 0.000000
	CHANNELS 6 Xposition Yposition Zposition Zrotation Yrotation Xrotation 
	JOINT LHipJoint
	{
		OFFSET 0.000000 0.000000 0.000000
		CHANNELS 3 Zrotation Yrotation Xrotation
		JOINT LeftUpLeg
		{
			OFFSET 1.363060 -1.794630 0.839290
			CHANNELS 3 Zrotation Yrotation Xrotation
			JOINT LeftLeg
			{
				OFFSET 2.448110 -6.726130 0.000000
				CHANNELS 3 Zrotation Yrotation Xrotation
				JOINT LeftFoot
				{
					OFFSET 2.562200 -7.039590 0.000000
					CHANNELS 3 Zrotation Yrotation Xrotation
					JOINT LeftToeBase
					{
						OFFSET 0.157640 -0.433110 2.322550
						CHANNELS 3 Zrotation Yrotation Xrotation
						End Site
						{
							OFFSET 0.000000 0.000000 0.000000
						}
					}
				}
			}
		}
	}
	JOINT RHipJoint
	{
		OFFSET 0.000000 0.000000 0.000000
		CHANNELS 3 Zrotation Yrotation Xrotation
		JOINT RightUpLeg
		{
			OFFSET -1.305520 -1.794630 0.839290
			CHANNELS 3 Zrotation Yrotation Xrotation
			JOINT RightLeg
			{
				OFFSET -2.542530 -6.985550 0.000000
				CHANNELS 3 Zrotation Yrotation Xrotation
				JOINT RightFoot
				{
					OFFSET -2.568260 -7.056230 0.000000
					CHANNELS 3 Zrotation Yrotation Xrotation
					JOINT RightToeBase
					{
						OFFSET -0.164730 -0.452590 2.363150
						CHANNELS 3 Zrotation Yrotation Xrotation
						End Site
						{
							OFFSET 0.000000 0.000000 0.000000
						}
					}
				}
			}
		}
	}
	JOINT LowerBack
	{
		OFFSET 0.000000 0.000000 0.000000
		CHANNELS 3 Zrotation Yrotation Xrotation
		JOINT Spine
		{
			OFFSET 0.028270 2.035590 -0.193380
			CHANNELS 3 Zrotation Yrotation Xrotation
			JOINT Spine1
			{
				OFFSET 0.056720 2.048850 -0.042750
				CHANNELS 3 Zrotation Yrotation Xrotation
				JOINT Neck
				{
					OFFSET 0.000000 0.000000 0.000000
					CHANNELS 3 Zrotation Yrotation Xrotation
					JOINT Neck1
					{
						OFFSET -0.054170 1.746240 0.172020
						CHANNELS 3 Zrotation Yrotation Xrotation
						JOINT Head
						{
							OFFSET 0.104070 1.761360 -0.123970
							CHANNELS 3 Zrotation Yrotation Xrotation
							End Site
							{
								OFFSET 0.000000 0.000000 0.000000
							}
						}
					}
				}
				JOINT LeftShoulder
				{
					OFFSET 0.000000 0.000000 0.000000
					CHANNELS 3 Zrotation Yrotation Xrotation
					JOINT LeftArm
					{
						OFFSET 3.362410 1.200890 -0.311210
						CHANNELS 3 Zrotation Yrotation Xrotation
						JOINT LeftForeArm
						{
							OFFSET 4.983000 -0.000000 -0.000000
							CHANNELS 3 Zrotation Yrotation Xrotation
							JOINT LeftHand
							{
								OFFSET 3.483560 -0.000000 -0.000000
								CHANNELS 3 Zrotation Yrotation Xrotation
								JOINT LeftFingerBase
								{
									OFFSET 0.000000 0.000000 0.000000
									CHANNELS 3 Zrotation Yrotation Xrotation
									JOINT LeftHandIndex1
									{
										OFFSET 0.715260 -0.000000 -0.000000
										CHANNELS 3 Zrotation Yrotation Xrotation
										End Site
										{
											OFFSET 0.000000 0.000000 0.000000
										}
									}
								}
								JOINT LThumb
								{
									OFFSET 0.000000 0.000000 0.000000
									CHANNELS 3 Zrotation Yrotation Xrotation
									End Site
									{
										OFFSET 0.000000 0.000000 0.000000
									}
								}
							}
						}
					}
				}
				JOINT RightShoulder
				{
					OFFSET 0.000000 0.000000 0.000000
					CHANNELS 3 Zrotation Yrotation Xrotation
					JOINT RightArm
					{
						OFFSET -3.136600 1.374050 -0.404650
						CHANNELS 3 Zrotation Yrotation Xrotation
						JOINT RightForeArm
						{
							OFFSET -5.241900 -0.000000 -0.000000
							CHANNELS 3 Zrotation Yrotation Xrotation
							JOINT RightHand
							{
								OFFSET -3.444170 -0.000000 -0.000000
								CHANNELS 3 Zrotation Yrotation Xrotation
								JOINT RightFingerBase
								{
									OFFSET 0.000000 0.000000 0.000000
									CHANNELS 3 Zrotation Yrotation Xrotation
									JOINT RightHandIndex1
									{
										OFFSET -0.622530 -0.000000 -0.000000
										CHANNELS 3 Zrotation Yrotation Xrotation
										End Site
										{
											OFFSET 0.000000 0.000000 0.000000
										}
									}
								}
								JOINT RThumb
								{
									OFFSET 0.000000 0.000000 0.000000
									CHANNELS 3 Zrotation Yrotation Xrotation
									End Site
									{
										OFFSET 0.000000 0.000000 0.000000
									}
								}
							}
						}
					}
				}
			}
		}
	}
}
MOTION
Frames: 6
Frame Time: 0.008333
-11.358037 16.696880 1.189484 -169.659490 89.359672 -158.226036 -11.182695 3.135665 -0.949383 -8.660378 4.018756 -4.925883 -0.034411 2.271796 41.104274 2.333807 15.783649 -0.000927 1.999700 0.000000 -60.526900 9.350420 0.315434 2.156770 1.703180 -1.086348 -35.219247 2.130311 -0.337651 10.997047 -0.468257 -2.969429 7.419377 -1.459900 -0.000000 -44.672400 2.089247 -3.270538 -0.828367 -0.399837 -3.500489 -3.020994 -7.267814 -3.537786 0.490353 9.092524 -7.106879 -6.652497 -4.081835 -0.320948 0.244704 0.000000 0.000000 0.000000 -4.378056 4.829013 1.145399 -49.899621 -4.193063 10.929425 -1.564693 -59.805721 -0.026389 16.654057 -1.624727 -0.257456 -0.209370 0.125223 0.000000 0.000000 0.000000 0.000000 0.000000 0.000000 0.000000 17.270742 -6.395030 1.456222 59.396193 -10.619603 -10.828495 4.363483 3.012252 -0.001872 -4.978222 -0.469818 0.020801 0.157985 -0.006661 -0.000000 0.000000 0.000000 0.000000 0.000000 0.000000 0.000000 
-11.140422 16.693081 1.184835 -123.532223 89.325160 -112.204237 -11.531031 3.157056 -1.002388 -8.185926 4.833620 -6.991924 0.211203 2.500068 45.059163 2.570995 17.385607 0.934025 2.463900 0.000000 -51.563301 9.195006 0.178076 1.962800 2.657770 -1.631791 -35.209578 2.142262 -0.494413 12.347746 -0.405095 -2.860909 8.732586 -1.495500 -0.000001 -45.230100 2.668116 -3.063750 -0.719244 -0.321277 -3.328267 -3.038002 -7.267007 -3.364921 0.456763 8.944958 -6.671918 -6.620207 -4.114662 -0.323092 0.251426 0.000000 0.000000 0.000000 -4.802143 5.125371 1.168944 -50.568038 -4.191747 10.661450 -1.621711 -58.672736 -0.025470 16.700739 -1.313820 -0.210743 -0.203169 0.116634 0.000000 0.000000 0.000000 0.000000 0.000000 0.000000 0.000000 17.175448 -5.837506 1.484909 59.416742 -9.857783 -10.527840 4.334770 3.073312 -0.001457 -5.509321 -0.199055 0.009415 0.159081 -0.009728 -0.000000 0.000000 0.000000 0.000000 0.000000 0.000000 0.000000 
-10.927998 16.693249 1.176414 -107.166283 88.933510 -95.924547 -11.891577 3.017418 -1.069941 -7.746178 5.596642 -9.110139 0.462612 2.650700 48.885353 2.790421 18.849770 1.283310 2.783899 0.000000 -41.087399 9.006195 -0.042833 1.792297 3.617694 -2.258061 -35.138805 2.214424 -0.647227 13.468013 -0.330610 -2.551635 9.678206 -1.432400 0.000000 -45.997899 3.254409 -2.911510 -0.584850 -0.204952 -3.207420 -3.042850 -7.266460 -3.250063 0.411253 8.818095 -6.199135 -6.588513 -4.149227 -0.325243 0.256520 0.000000 0.000000 0.000000 -5.238619 5.383815 1.225570 -51.317582 -4.139934 10.447797 -1.685110 -57.449515 -0.024447 16.738140 -1.026923 -0.167233 -0.196340 0.108257 0.000000 0.000000 0.000000 0.000000 0.000000 0.000000 0.000000 17.091300 -5.272860 1.509589 59.472238 -8.958785 -10.338184 4.304175 3.162549 -0.000939 -5.913802 0.136445 -0.007870 0.159398 -0.013377 -0.000000 0.000000 0.000000 0.000000 0.000000 0.000000 0.000000 
-10.720734 16.697906 1.165000 -101.111845 88.458617 -89.917858 -12.204713 2.835599 -1.144047 -7.381595 6.298013 -11.298350 0.670884 2.787267 52.462712 2.991446 20.165872 1.157540 2.952500 0.000001 -31.256801 8.835619 -0.264611 1.626864 4.567078 -2.901551 -34.992859 2.314367 -0.771460 14.376859 -0.243543 -2.098252 10.224593 -1.294900 0.000001 -46.973500 3.869183 -2.766357 -0.438183 -0.090331 -3.094511 -3.045674 -7.274173 -3.142705 0.359049 8.719123 -5.716011 -6.568297 -4.187144 -0.327464 0.257790 0.000000 0.000000 0.000000 -5.671623 5.636545 1.290696 -52.126611 -4.046390 10.307084 -1.748387 -56.139698 -0.023261 16.777794 -0.789488 -0.131029 -0.188444 0.100049 0.000000 0.000000 0.000000 0.000000 0.000000 0.000000 0.000000 17.042291 -4.698490 1.537848 59.556204 -7.932407 -10.111964 4.274902 3.344282 -0.000401 -6.196133 0.497995 -0.028553 0.159065 -0.017384 -0.000000 0.000000 0.000000 0.000000 0.000000 0.000000 0.000000 
-10.518480 16.707299 1.151879 -99.059184 87.986400 -87.870855 -12.475024 2.634430 -1.209776 -7.148614 6.873994 -13.536455 0.843612 2.918361 55.728910 3.173670 21.334299 0.715257 2.993800 0.000000 -23.638500 8.676058 -0.469249 1.462259 5.451868 -3.555829 -34.766811 2.432675 -0.863958 15.101251 -0.148642 -1.552501 10.365455 -1.109300 0.000000 -48.131000 4.444655 -2.628980 -0.288199 0.011212 -2.986611 -3.047475 -7.289584 -3.040155 0.304359 8.660991 -5.243663 -6.558354 -4.228550 -0.329800 0.255779 0.000000 0.000000 0.000000 -6.077262 5.868244 1.358520 -52.981921 -3.909567 10.260484 -1.809178 -54.745527 -0.021873 16.820602 -0.617107 -0.104432 -0.179579 0.092025 0.000000 0.000000 0.000000 0.000000 0.000000 0.000000 0.000000 17.050352 -4.134760 1.569520 59.659839 -6.795941 -9.756523 4.243858 3.661511 0.000129 -6.369678 0.860789 -0.050233 0.158024 -0.021450 -0.000000 0.000000 0.000000 0.000000 0.000000 0.000000 0.000000 
-10.320668 16.721434 1.137490 -99.109823 87.538984 -87.878509 -12.709194 2.421175 -1.255865 -7.056106 7.291479 -15.829542 0.986112 3.046257 58.681175 3.331543 22.311003 -0.026882 2.888700 0.000000 -18.176599 8.521175 -0.656215 1.306732 6.252149 -4.188033 -34.454279 2.562134 -0.922068 15.634829 -0.057864 -1.004942 10.146026 -0.918200 -0.000000 -49.399400 4.965668 -2.502367 -0.155459 0.098924 -2.886852 -3.052812 -7.309325 -2.946017 0.244624 8.633230 -4.756563 -6.542799 -4.271687 -0.332306 0.255181 0.000000 0.000000 0.000000 -6.457213 6.065777 1.429619 -53.863847 -3.716144 10.332073 -1.866081 -53.273064 -0.020282 16.858700 -0.506727 -0.087038 -0.169810 0.084136 0.000000 0.000000 0.000000 0.000000 0.000000 0.000000 0.000000 17.092541 -3.560337 1.602803 59.798723 -5.555921 -9.587730 4.212134 3.987301 0.000835 -6.429754 1.329663 -0.077909 0.156256 -0.026550 -0.000000 0.000000 0.000000 0.000000 0.000000 0.000000 0.000000 
